PathFileType	4	(X/Y/Z)	D:\TRACE\spot_10-12-23\spot_arm_motion_1_5-platform.trc
DataRate	CameraRate	NumFrames	NumMarkers	Units	OrigDataRate	OrigDataStartFrame	OrigNumFrames
100.00	100.00	      73	5	mm	100.00	6126	      7000
Frame#	Time	Left_Front			Right_Front			Left_Aft			Right_Aft			Post			
		X1	Y1	Z1	X2	Y2	Z2	X3	Y3	Z3	X4	Y4	Z4	X5	Y5	Z5	

6126	61.250	-818.59564	19.79568	-638.38892	754.29340	23.70225	-631.47577	-735.19507	-3.91095	499.66394	681.90137	-1.45621	585.61749	-34.97313	763.51794	-942.00842	
6127	61.260	-818.04126	20.02291	-638.24792	755.13190	24.04744	-631.36957	-734.67841	-3.99707	499.71109	682.56970	-1.78801	585.69159	-33.52531	763.32782	-941.96057	
6128	61.270	-817.22717	20.05268	-638.08862	755.70422	24.33361	-631.26996	-733.91772	-4.42269	499.78690	683.02246	-2.04354	585.76764	-33.53536	764.17303	-940.93738	
6129	61.280	-816.46686	20.21451	-638.14154	756.06757	24.51460	-631.13776	-733.24402	-4.72030	499.92191	683.60162	-2.38886	585.84009	-32.86299	764.77216	-940.25067	
6130	61.290	-815.79211	20.91562	-637.99921	756.96802	24.76568	-630.94470	-732.65576	-4.86724	499.92859	684.45972	-2.68161	585.95410	-32.60107	765.40607	-939.83179	
6131	61.300	-815.43250	21.22076	-637.87866	757.88757	25.26531	-630.79761	-731.97888	-5.01106	500.07352	684.99811	-2.89865	585.98602	-32.15897	765.92480	-939.33350	
6132	61.310	-814.55334	21.45913	-637.84485	758.37543	25.71214	-630.80048	-731.33905	-5.14588	499.89264	685.52173	-3.25867	586.01575	-31.33290	766.32434	-938.68219	
6133	61.320	-813.97833	21.70477	-637.75952	758.81671	26.07397	-630.72040	-730.83832	-5.27485	500.04001	685.98230	-3.52432	586.07886	-29.27957	765.94781	-939.19135	
6134	61.330	-813.12177	21.92894	-637.58209	759.45752	26.32612	-630.74890	-729.97650	-5.65541	500.23761	686.91522	-3.87681	586.25391	-29.30620	767.04547	-938.44299	
6135	61.340	-812.47943	22.20183	-637.51874	760.46063	26.60467	-630.62457	-729.10760	-5.99443	500.48117	687.57477	-4.22026	586.31110	-29.19803	767.71277	-937.56207	
6136	61.350	-811.70032	22.78726	-637.41235	760.98529	26.87444	-630.70557	-728.41357	-6.37571	500.39117	688.13141	-4.47040	586.33783	-28.41725	767.99359	-937.22339	
6137	61.360	-811.13605	23.21923	-637.46606	761.84094	27.41429	-630.49402	-727.96399	-6.38494	500.13391	688.96411	-4.66266	586.35522	-27.77480	768.66992	-936.95850	
6138	61.370	-810.42358	23.50918	-637.37848	762.64172	27.66000	-630.28357	-727.02612	-6.59422	500.19312	690.05298	-4.86004	586.46051	-27.00542	769.17719	-936.66858	
6139	61.380	-809.43341	23.58651	-637.22272	763.27570	27.87777	-630.22479	-726.37775	-6.72139	500.24725	690.64227	-4.97264	586.51575	-26.26231	769.44141	-936.01312	
6140	61.390	-808.75769	23.88112	-637.19171	764.15179	28.18125	-630.19763	-725.45746	-7.16222	500.53064	691.31842	-5.35733	586.53888	-25.66971	769.65948	-935.56354	
6141	61.400	-807.85187	24.24966	-637.12628	764.79803	28.40881	-630.18799	-724.63568	-7.38679	500.52271	692.07111	-5.62144	586.65179	-24.77958	770.37018	-935.25745	
6142	61.410	-807.18518	24.53361	-637.02222	765.41669	28.66758	-630.09351	-723.92102	-7.53449	500.61642	693.01123	-5.75949	586.68646	-23.69811	770.69556	-934.67340	
6143	61.420	-806.24280	24.93179	-637.03296	766.45947	29.13359	-630.00067	-723.19537	-7.63206	500.60898	693.74780	-5.99784	586.60724	-23.01886	771.07745	-934.28070	
6144	61.430	-805.59583	25.05398	-636.75360	767.38739	29.48615	-629.98322	-722.40662	-7.71668	500.51529	694.66510	-6.14885	586.69135	-22.43959	771.60724	-933.96991	
6145	61.440	-804.67255	25.13512	-636.92419	767.98865	29.58987	-629.85840	-721.62238	-7.92280	500.75266	695.33722	-6.32963	586.77594	-21.51711	771.93524	-933.37891	
6146	61.450	-803.87891	25.71460	-636.81494	768.83258	29.82948	-629.65613	-720.64996	-8.32798	500.88724	696.67944	-6.18890	586.71533	-20.56689	772.20117	-933.05505	
6147	61.460	-803.15649	26.00293	-636.65552	769.67249	30.17650	-629.67310	-719.85046	-8.53438	500.90979	697.61768	-6.34040	586.79590	-19.51511	772.58899	-933.04205	
6148	61.470	-802.23932	26.04211	-636.39252	770.45050	30.55092	-629.69348	-719.07709	-8.62541	500.88556	697.68695	-7.19731	586.91486	-19.17315	773.10535	-932.53723	
6149	61.480	-801.36621	26.25932	-636.40857	771.44940	30.88164	-629.54633	-718.19891	-8.64811	500.92474	698.66492	-7.36213	587.05286	-18.34501	773.71002	-932.06232	
6150	61.490	-800.48248	26.60775	-636.40497	772.00714	31.00127	-629.47491	-717.35034	-8.97044	500.97922	699.74042	-7.52743	587.08099	-17.40484	774.06342	-931.77802	
6151	61.500	-799.81073	26.84645	-636.36646	773.05011	31.05341	-629.44989	-716.46783	-9.26195	501.08286	700.44220	-7.70379	587.12628	-16.50180	774.23804	-931.59106	
6152	61.510	-798.82617	27.33162	-636.12482	774.34369	31.49944	-629.23584	-715.56848	-9.44407	501.19818	701.32916	-7.92409	587.19336	-15.43227	774.72632	-931.03931	
6153	61.520	-797.98663	27.60092	-636.12354	774.82916	31.79625	-629.20575	-714.64398	-9.65064	501.25397	702.33057	-8.12968	587.32678	-15.15311	775.18866	-930.38214	
6154	61.530	-796.98871	27.80276	-636.17456	775.90167	32.03185	-629.02802	-713.76935	-9.68010	501.24170	703.16803	-8.41991	587.40179	-14.06102	775.42780	-930.34296	
6155	61.540	-796.13995	28.02674	-636.09467	776.64630	32.21317	-629.16370	-713.06274	-9.72963	501.29971	703.92151	-8.45123	587.35553	-12.72399	775.74078	-929.82202	
6156	61.550	-795.21942	28.12949	-636.05170	777.40186	32.44271	-629.22650	-712.00415	-9.97542	501.35110	705.16571	-8.58533	587.47369	-12.02129	776.15265	-929.58630	
6157	61.560	-794.45837	28.48453	-635.93414	778.21509	32.66158	-629.18628	-710.99872	-10.21366	501.35391	706.13226	-8.63792	587.49628	-11.29597	776.47931	-929.29657	
6158	61.570	-793.35870	28.59088	-635.95477	779.55115	33.20617	-628.76453	-710.25507	-10.44277	501.44742	706.83215	-8.74481	587.48730	-10.06437	776.79846	-928.77026	
6159	61.580	-792.64417	29.13841	-635.83618	780.33881	33.40432	-628.88696	-709.35468	-10.50980	501.50586	707.91125	-9.15467	587.71606	-9.17678	777.16840	-928.39795	
6160	61.590	-791.53369	29.23640	-635.75446	781.04565	33.53697	-628.88361	-708.38776	-10.59220	501.60632	708.69708	-9.34578	587.81250	-8.55482	777.29358	-928.25305	
6161	61.600	-790.67456	29.42728	-635.51715	782.00098	33.90159	-628.68463	-707.37469	-10.83590	501.66873	709.70593	-9.55723	587.78656	-7.56449	777.81970	-927.85767	
6162	61.610	-789.66022	29.43117	-635.62836	783.00323	34.07127	-628.83148	-706.57709	-11.06527	501.68948	710.62708	-9.82566	587.93103	-6.45638	778.18500	-927.61938	
6163	61.620	-788.82971	29.95990	-635.70203	784.03638	34.40349	-628.68225	-705.59680	-11.17758	501.60611	711.64679	-9.85425	588.05255	-5.46802	778.50806	-927.36963	
6164	61.630	-787.80402	30.15524	-635.43463	785.01477	34.55179	-628.39545	-704.54993	-11.38507	501.70441	712.50775	-9.96318	588.04712	-4.81726	778.68195	-927.17365	
6165	61.640	-786.96088	30.17198	-635.25885	785.93414	34.70382	-628.38312	-703.69098	-11.39985	501.88171	713.46106	-10.19137	588.00653	-3.78210	779.17328	-926.72021	
6166	61.650	-785.96704	30.54947	-635.22748	786.87708	34.96278	-628.39648	-702.74872	-11.68067	501.82861	714.56525	-10.35392	588.00934	-2.82029	779.57611	-926.47711	
6167	61.660	-785.02362	30.63884	-635.28442	787.75067	35.07603	-628.41241	-701.73694	-11.73897	501.82458	715.58301	-10.40784	587.86603	-1.96147	779.76801	-926.10791	
6168	61.670	-784.02405	30.85329	-635.18872	788.54797	35.35607	-628.35901	-700.77234	-11.84737	501.89432	716.24030	-10.69886	587.97583	-0.78391	780.14020	-925.56030	
6169	61.680	-783.10107	31.05158	-635.22162	789.60303	35.71251	-628.39453	-699.90759	-12.10620	501.92328	717.56909	-10.70971	588.09229	0.07328	780.48035	-925.53986	
6170	61.690	-782.02118	31.43861	-635.25671	790.66345	35.76918	-628.12628	-698.94379	-12.16821	502.14746	718.34528	-10.90561	588.07526	1.21051	780.76807	-925.06207	
6171	61.700	-781.26801	31.63383	-635.03333	791.51788	35.99715	-628.00012	-697.85699	-12.39286	502.14627	719.28967	-10.98876	588.02838	2.00173	780.88928	-924.51642	
6172	61.710	-780.20496	31.78870	-634.87177	792.59857	36.08719	-627.97150	-696.95569	-12.49019	502.11545	720.36737	-11.35843	588.20856	2.80935	781.30658	-924.45624	
6173	61.720	-779.15955	32.04360	-634.89813	793.59308	36.35627	-627.95563	-696.06958	-12.67179	502.10071	721.18390	-11.51048	588.21576	3.50472	781.44562	-924.09979	
6174	61.730	-778.24908	32.08900	-635.01776	794.45807	36.62910	-627.94147	-695.06909	-12.74145	502.11761	722.19800	-11.59773	588.30493	4.96934	781.76538	-923.82080	
6175	61.740	-777.26263	32.24185	-634.85138	795.63208	36.76316	-627.84882	-694.01013	-12.77068	502.28348	723.35449	-11.67033	588.46844	5.80760	782.14728	-923.72876	
6176	61.750	-776.15692	32.54259	-634.94037	796.52155	36.90089	-627.85010	-693.02002	-13.08335	502.29843	724.31256	-11.64058	588.51074	6.59245	782.38263	-923.56439	
6177	61.760	-775.33203	32.72126	-634.76349	797.27942	37.01672	-627.78809	-692.15472	-13.19698	502.37973	725.28326	-11.82657	588.40668	7.94679	782.48615	-923.33789	
6178	61.770	-774.44043	33.02193	-634.67261	798.49860	37.40564	-627.57751	-691.03601	-13.30233	502.42062	726.27942	-12.10369	588.52252	9.02709	782.72302	-923.08124	
6179	61.780	-773.34454	33.22292	-634.67346	799.40369	37.66111	-627.75769	-690.11243	-13.36757	502.36133	727.15338	-12.27143	588.56433	9.48796	783.24835	-922.89081	
6180	61.790	-772.52356	33.29311	-634.47034	800.25439	37.90130	-627.76300	-689.26398	-13.44160	502.36203	727.98523	-12.46814	588.56732	10.50379	783.45001	-922.53717	
6181	61.800	-771.50952	33.23029	-634.55743	801.25745	37.91223	-627.68762	-688.25067	-13.59218	502.36890	728.96667	-12.65471	588.64514	11.65648	783.62823	-922.24774	
6182	61.810	-770.53186	33.68187	-634.61383	802.16614	37.86957	-627.62567	-687.27356	-13.77889	502.40427	730.01556	-12.57330	588.66370	12.39666	783.88367	-922.13165	
6183	61.820	-769.49426	33.71189	-634.56073	803.20209	38.05432	-627.47339	-686.34271	-13.89276	502.52209	731.03247	-12.67848	588.67059	13.39264	784.25116	-921.87994	
6184	61.830	-768.57721	33.71458	-634.31512	804.26666	38.51919	-627.47229	-685.34937	-14.13219	502.58887	732.01819	-12.75762	588.79663	14.73340	784.45203	-921.54370	
6185	61.840	-767.57135	33.89636	-634.24213	805.21021	38.64686	-627.36835	-684.30133	-14.01489	502.65201	733.05261	-12.94323	588.76935	15.41904	784.56421	-921.38660	
6186	61.850	-766.64990	34.03577	-634.26355	806.01410	38.76651	-627.49689	-683.52911	-14.18990	502.61008	733.81891	-13.15292	588.74384	16.24121	784.75323	-921.34113	
6187	61.860	-765.64410	34.21371	-634.04913	807.01422	38.87122	-627.46655	-682.65680	-14.20713	502.61423	734.83459	-13.29731	588.75745	17.28692	785.01147	-920.83850	
6188	61.870	-764.75604	34.33491	-634.03186	807.82434	39.02705	-627.29297	-681.49084	-14.27196	502.56210	735.78223	-13.36500	588.82294	18.38158	785.14716	-920.64825	
6189	61.880	-763.84546	34.68178	-634.25940	808.83710	39.22544	-627.49908	-680.50812	-14.62060	502.70178	736.70892	-13.46429	588.83002	19.02818	785.49017	-920.61774	
6190	61.890	-762.91357	34.89787	-634.28949	810.02692	39.31652	-627.14740	-679.62158	-14.70012	502.82312	737.56085	-13.49714	588.87976	19.95193	785.78210	-920.37280	
6191	61.900	-761.83905	34.81186	-634.04962	810.81653	39.35442	-627.12665	-678.64441	-14.74389	502.71707	738.68164	-13.56804	588.94080	21.24240	785.73718	-920.16858	
6192	61.910	-761.04315	34.79306	-634.13721	811.93939	39.54153	-627.08789	-677.74707	-14.68925	502.75708	739.82294	-13.64524	588.87897	22.06307	785.93158	-920.00177	
6193	61.920	-759.97681	35.19163	-634.15802	812.71320	39.60743	-627.12732	-676.91772	-14.73473	502.84421	740.49115	-13.78091	588.84454	22.67150	786.06146	-919.94739	
6194	61.930	-759.23810	35.35251	-634.01324	813.50116	39.72028	-627.24060	-675.98456	-14.86305	502.98834	741.51312	-13.96889	588.95050	23.97119	786.18097	-919.63129	
6195	61.940	-758.28345	35.52189	-633.83429	814.44727	39.72443	-627.00470	-674.85980	-14.90955	502.87988	742.36163	-14.11415	588.99689	24.97034	786.55084	-919.39471	
6196	61.950	-757.26373	35.37474	-633.92133	815.43561	39.91648	-626.81506	-674.00195	-15.12180	502.90521	743.08112	-14.13461	588.90814	25.57723	786.69049	-919.33905	
6197	61.960	-756.38116	35.68031	-634.00299	816.36475	40.08389	-627.02783	-673.26636	-15.23633	502.87323	744.18805	-14.19941	589.01038	26.26151	786.70782	-919.35822	
6198	61.970	-755.53717	35.64931	-633.89746	817.29315	40.14701	-626.98456	-672.29333	-15.20651	502.88312	745.36096	-14.24620	589.09637	27.45998	786.77362	-919.18933	
